<svg width="32" height="32" viewBox="0 0 32 32" fill="none" xmlns="http://www.w3.org/2000/svg">
  <!-- Background circle -->
  <circle cx="16" cy="16" r="16" fill="url(#gradient)"/>
  
  <!-- Wave design -->
  <path d="M4 18C8 14 12 14 16 18C20 22 24 22 28 18V28C28 30.2091 26.2091 32 24 32H8C5.79086 32 4 30.2091 4 28V18Z" fill="white" fill-opacity="0.9"/>
  
  <path d="M4 14C8 10 12 10 16 14C20 18 24 18 28 14V24C28 26.2091 26.2091 28 24 28H8C5.79086 28 4 26.2091 4 24V14Z" fill="white" fill-opacity="0.7"/>
  
  <path d="M4 10C8 6 12 6 16 10C20 14 24 14 28 10V20C28 22.2091 26.2091 24 24 24H8C5.79086 24 4 22.2091 4 20V10Z" fill="white" fill-opacity="0.5"/>
  
  <!-- Gradient definition -->
  <defs>
    <linearGradient id="gradient" x1="0%" y1="0%" x2="100%" y2="100%">
      <stop offset="0%" style="stop-color:#0ea5e9;stop-opacity:1" />
      <stop offset="50%" style="stop-color:#0284c7;stop-opacity:1" />
      <stop offset="100%" style="stop-color:#0d9488;stop-opacity:1" />
    </linearGradient>
  </defs>
</svg>
